<svg xmlns="http://www.w3.org/2000/svg" viewBox="62.47499816894532 107 450.04998779296875 325.63999938964844"> <svg xmlns="http://www.w3.org/2000/svg" xmlns:xlink="http://www.w3.org/1999/xlink" xmlnsSerif="http://www.serif.com/" viewBox="0 0 162.66500854492188 107.33100128173828" version="1.1" xml:space="preserve" height="132.61844504592432" width="200.9893035888672" y="177" x="187.005" preserveAspectRatio="xMinYMin" fill-rule="evenodd" clip-rule="evenodd" stroke-linejoin="round" stroke-miterlimit="2" style="overflow: visible;"><path d="M92.952,67.082l-23.238,-13.416l-0,26.832l23.238,-13.416Z" style="fill: #930df2;"></path><path d="M46.476,93.915l23.238,-13.417l-23.238,-13.416l-0,26.833Z" style="fill: #f20daf;"></path><path d="M23.238,107.331l-0,-26.833l23.238,13.417l-23.238,13.416Z" style="fill: #e61a1a;"></path><path d="M0,93.915l23.238,-13.417l-0,26.833l-23.238,-13.416Z" style="fill: #8026d9;"></path><path d="M23.238,80.498l-23.238,-13.416l0,26.833l23.238,-13.417Z" style="fill: #5d00ff;"></path><path d="M23.238,53.666l-23.238,13.416l23.238,13.416l-0,-26.832Z" style="fill: #002cff;"></path><path d="M0,40.249l23.238,13.417l-23.238,13.416l0,-26.833Z" style="fill: #0075ff;"></path><path d="M23.238,26.833l-23.238,13.416l23.238,13.417l-0,-26.833Z" style="fill: #269fd9;"></path><path d="M0,13.416l23.238,13.417l-23.238,13.416l0,-26.833Z" style="fill: #00fffb;"></path><path d="M23.238,0l-0,26.833l-23.238,-13.417l23.238,-13.416Z" style="fill: #26d9d5;"></path><path d="M46.476,13.416l-23.238,13.417l-0,-26.833l23.238,13.416Z" style="fill: #41d926;"></path><path d="M46.476,40.249l-0,-26.833l-23.238,13.417l23.238,13.416Z" style="fill: #99d926;"></path><path d="M46.476,13.416l22.978,13.567l-22.978,13.266l-0,-26.833Z" style="fill: #d0f20d;"></path><path d="M69.714,53.666l-23.238,-13.417l22.978,-13.266l0.26,26.683Z" style="fill: #f2af0d;"></path><path d="M92.952,40.249l-23.498,-13.266l0.26,26.683l23.238,-13.417Z" style="fill: #e5f20d;"></path><path d="M92.952,67.082l-0,-26.833l-23.238,13.417l23.238,13.416Z" style="fill: #faffa6;"></path><path d="M115.707,53.944l-22.755,13.138l-0,-26.833l22.755,13.695Z" style="fill: #f2f20d;"></path><path d="M116.19,80.498l-23.238,-13.416l22.755,-13.138l0.483,26.554Z" style="fill: #f2af0d;"></path><path d="M139.529,67.023l-23.339,13.475l-0.483,-26.554l23.822,13.079Z" style="fill: #d0f20d;"></path><path d="M139.427,93.915l0.102,-26.892l-23.339,13.475l23.237,13.417Z" style="fill: #99d926;"></path><path d="M162.665,80.498l-23.136,-13.475l-0.102,26.892l23.238,-13.417Z" style="fill: #41d926;"></path><path d="M162.665,53.666l-23.136,13.357l23.136,13.475l0,-26.832Z" style="fill: #26d9d5;"></path><path d="M139.529,40.164l23.136,13.502l-23.136,13.357l0,-26.859Z" style="fill: #0081ff;"></path><path d="M162.665,26.833l-23.136,13.331l23.136,13.502l0,-26.833Z" style="fill: #265ed9;"></path><path d="M139.427,13.416l0.102,26.748l23.136,-13.331l-23.238,-13.417Z" style="fill: #951ae6;"></path><path d="M116.19,26.833l23.339,13.331l-0.102,-26.748l-23.237,13.417Z" style="fill: #f20d5e;"></path><path d="M92.952,40.249l23.238,-13.416l-0.483,27.111l-22.755,-13.695Z" style="fill: #930df2;"></path><path d="M139.529,40.164l-23.822,13.78l0.483,-27.111l23.339,13.331Z" style="fill: #f20daf;"></path><path d="M23.238,80.498l23.238,-13.416l-0,26.833l-23.238,-13.417Z" style="fill: #f20d5e;"></path><path d="M69.714,53.666l-0,26.832l-23.238,-13.416l23.238,-13.416Z" style="fill: #d91ae6;"></path></svg> <svg y="323" viewBox="3.2899999618530273 16.43000030517578 310.04998779296875 39.63999938964844" x="132.47499816894532" height="39.63999938964844" width="310.04998779296875" style="overflow: visible;"><g fill="#0a153d" fill-opacity="1" style=""><path d="M25.81 36.57Q29.04 37.26 31.00 39.78Q32.97 42.29 32.97 45.53L32.97 45.53Q32.97 50.19 29.71 52.92Q26.45 55.65 20.62 55.65L20.62 55.65L3.29 55.65L3.29 18.44L20.03 18.44Q25.70 18.44 28.91 21.04Q32.12 23.64 32.12 28.09L32.12 28.09Q32.12 31.38 30.40 33.55Q28.67 35.72 25.81 36.57L25.81 36.57ZM12.35 25.70L12.35 33.50L18.29 33.50Q20.51 33.50 21.70 32.52Q22.90 31.54 22.90 29.63L22.90 29.63Q22.90 27.72 21.70 26.71Q20.51 25.70 18.29 25.70L18.29 25.70L12.35 25.70ZM19.03 48.34Q21.31 48.34 22.55 47.30Q23.80 46.27 23.80 44.31L23.80 44.31Q23.80 42.35 22.50 41.23Q21.20 40.12 18.92 40.12L18.92 40.12L12.35 40.12L12.35 48.34L19.03 48.34ZM66.09 40.39Q66.09 41.66 65.93 43.04L65.93 43.04L45.42 43.04Q45.63 45.79 47.20 47.25Q48.76 48.71 51.04 48.71L51.04 48.71Q54.43 48.71 55.76 45.84L55.76 45.84L65.40 45.84Q64.66 48.76 62.73 51.09Q60.79 53.42 57.88 54.75Q54.96 56.07 51.36 56.07L51.36 56.07Q47.01 56.07 43.62 54.22Q40.23 52.36 38.32 48.92Q36.41 45.47 36.41 40.86L36.41 40.86Q36.41 36.25 38.29 32.81Q40.17 29.36 43.57 27.51Q46.96 25.65 51.36 25.65L51.36 25.65Q55.65 25.65 58.99 27.45Q62.33 29.26 64.21 32.59Q66.09 35.93 66.09 40.39L66.09 40.39ZM45.47 38.00L56.82 38.00Q56.82 35.67 55.23 34.29Q53.64 32.91 51.25 32.91L51.25 32.91Q48.97 32.91 47.41 34.24Q45.84 35.56 45.47 38.00L45.47 38.00ZM69.06 40.81Q69.06 36.25 70.78 32.81Q72.50 29.36 75.47 27.51Q78.44 25.65 82.10 25.65L82.10 25.65Q85.01 25.65 87.42 26.87Q89.83 28.09 91.21 30.16L91.21 30.16L91.21 16.43L100.28 16.43L100.28 55.65L91.21 55.65L91.21 51.41Q89.94 53.53 87.58 54.80Q85.22 56.07 82.10 56.07L82.10 56.07Q78.44 56.07 75.47 54.19Q72.50 52.31 70.78 48.84Q69.06 45.37 69.06 40.81L69.06 40.81ZM91.21 40.86Q91.21 37.47 89.33 35.51Q87.45 33.55 84.75 33.55L84.75 33.55Q82.04 33.55 80.16 35.48Q78.28 37.42 78.28 40.81L78.28 40.81Q78.28 44.20 80.16 46.19Q82.04 48.18 84.75 48.18L84.75 48.18Q87.45 48.18 89.33 46.22Q91.21 44.25 91.21 40.86L91.21 40.86ZM115.91 31.00Q117.50 28.57 119.89 27.16Q122.27 25.76 125.19 25.76L125.19 25.76L125.19 35.35L122.69 35.35Q119.30 35.35 117.61 36.81Q115.91 38.27 115.91 41.92L115.91 41.92L115.91 55.65L106.85 55.65L106.85 26.08L115.91 26.08L115.91 31.00ZM142.99 56.07Q138.65 56.07 135.18 54.22Q131.70 52.36 129.72 48.92Q127.73 45.47 127.73 40.86L127.73 40.86Q127.73 36.30 129.74 32.83Q131.76 29.36 135.26 27.51Q138.75 25.65 143.10 25.65L143.10 25.65Q147.45 25.65 150.94 27.51Q154.44 29.36 156.46 32.83Q158.47 36.30 158.47 40.86L158.47 40.86Q158.47 45.42 156.43 48.89Q154.39 52.36 150.86 54.22Q147.34 56.07 142.99 56.07L142.99 56.07ZM142.99 48.23Q145.59 48.23 147.42 46.32Q149.25 44.41 149.25 40.86L149.25 40.86Q149.25 37.31 147.47 35.40Q145.70 33.50 143.10 33.50L143.10 33.50Q140.45 33.50 138.70 35.38Q136.95 37.26 136.95 40.86L136.95 40.86Q136.95 44.41 138.67 46.32Q140.40 48.23 142.99 48.23L142.99 48.23ZM161.49 40.86Q161.49 36.25 163.37 32.81Q165.25 29.36 168.62 27.51Q171.98 25.65 176.33 25.65L176.33 25.65Q181.90 25.65 185.63 28.57Q189.37 31.48 190.53 36.78L190.53 36.78L180.89 36.78Q179.67 33.39 176.17 33.39L176.17 33.39Q173.68 33.39 172.20 35.32Q170.71 37.26 170.71 40.86L170.71 40.86Q170.71 44.47 172.20 46.40Q173.68 48.34 176.17 48.34L176.17 48.34Q179.67 48.34 180.89 44.94L180.89 44.94L190.53 44.94Q189.37 50.14 185.61 53.11Q181.84 56.07 176.33 56.07L176.33 56.07Q171.98 56.07 168.62 54.22Q165.25 52.36 163.37 48.92Q161.49 45.47 161.49 40.86L161.49 40.86ZM224.67 55.65L213.43 55.65L204.42 43.25L204.42 55.65L195.36 55.65L195.36 16.43L204.42 16.43L204.42 38.11L213.38 26.08L224.56 26.08L212.26 40.92L224.67 55.65ZM264.73 55.65L262.51 49.08L248.62 49.08L246.40 55.65L236.91 55.65L250.37 18.44L260.87 18.44L274.33 55.65L264.73 55.65ZM251.01 42.08L260.18 42.08L255.57 28.46L251.01 42.08ZM303.74 18.44L313.34 18.44L300.14 55.65L288.80 55.65L275.60 18.44L285.25 18.44L294.47 46.53L303.74 18.44Z" transform="translate(0, 0)"></path></g></svg></svg>
